#N canvas 437 272 1295 708 10;
#X obj 177 261 *~ 2;
#X obj 176 291 +~ 2;
#X obj 266 324 *~ 2;
#X obj 267 347 +~ 2;
#X obj 304 536 delwrite~ phase2 100;
#X obj 267 380 vd~ phase2;
#X obj 268 270 wrap~;
#X obj 177 159 phasor~;
#X obj 268 246 +~ 0.5;
#X obj 178 233 cos~;
#X obj 267 293 cos~;
#X obj 175 325 vd~ phase1;
#X obj 251 563 delwrite~ phase1 100;
#X obj 177 203 clip~;
#X obj 320 163 + 1;
#X obj 320 140 * -1;
#X obj 320 113 + 0;
#X obj 177 132 + 0;
#X obj 31 232 + 0;
#X obj 177 109 * 10;
#X obj 320 90 * 0.33;
#X obj 32 211 * 3;
#X obj 36 365 * 1.8;
#X obj 36 388 - 0.9;
#X obj 174 438 *~ 0.5;
#X obj 267 440 *~ 0.5;
#X obj 543 194 r~ output1;
#X obj 183 354 s~ output1;
#X obj 281 407 s~ output2;
#X obj 574 220 r~ output2;
#X obj 544 285 *~;
#X obj 695 174 wrap;
#X obj 638 283 *~;
#X obj 575 285 *~;
#X obj 607 284 *~;
#X obj 623 124 * 0.5;
#X obj 684 148 * -0.5;
#X obj 684 121 + 0.001;
#X obj 621 149 + 0.001;
#X text 318 22 Clip #4 (0-1);
#X text 620 14 Stereo/Dual Mono #5 (0-1);
#X text 179 31 Speed #2 (0-1);
#X text 33 137 Depth #1 (0-1);
#X text 34 298 Feedback #3 (0-1);
#X obj 32 158 param.get 1;
#X obj 36 318 param.get 3;
#X obj 177 54 param.get 2;
#X obj 320 40 param.get 4;
#X obj 623 37 param.get 5;
#X obj 838 107 loadbang;
#X obj 67 215 param.set 1;
#X obj 75 369 param.set 3;
#X obj 210 105 param.set 2;
#X obj 374 94 param.set 4;
#X obj 740 122 param.set 5;
#X obj 559 446 *~ 0;
#X obj 607 445 *~ 0;
#X obj 776 361 line 0;
#X msg 776 335 1 500;
#X obj 559 480 dac~;
#X text 842 163 Presets;
#X obj 838 138 delay 150;
#X text 993 154 Client Widget defs;
#X obj 393 277 adc~;
#X obj 424 365 *~ 0.5;
#X obj 474 365 *~ 0.5;
#X obj 457 291 - 1;
#X obj 457 314 abs;
#X obj 399 170 r Ch-F;
#X obj 372 224 sendOSC pp 6;
#X obj 457 190 param.get 6;
#X obj 186 79 r Ch-A;
#X obj 42 184 r Ch-C;
#X obj 49 341 r Ch-D;
#X obj 331 65 r Ch-B;
#X obj 684 91 r Ch-E;
#X obj 558 396 *~ 0;
#X obj 606 395 *~ 0;
#X msg 838 182 \; Ch-C 0.5 \; Ch-A 0.03 \; Ch-D 0.1 \; Ch-B 0 \; Ch-E
0.2 \; Ch-F 0.6 \;;
#N canvas 920 307 474 329 sendMiscOsc 0;
#X obj 56 112 r sendlabel;
#X obj 141 252 s P2Jos;
#X obj 21 171 r sendtitle;
#X obj 141 222 list trim;
#X obj 21 195 list prepend lab_t;
#X obj 56 135 list prepend labl;
#X obj 189 152 r clearWidgets;
#X obj 189 176 list prepend clrWidgets;
#X obj 174 88 r newWidget;
#X obj 174 112 list prepend newWidget;
#X obj 95 37 r knobSz;
#X obj 95 61 list prepend knobSz;
#X obj 163 11 r nudge;
#X obj 163 35 list prepend nudge;
#X connect 0 0 5 0;
#X connect 2 0 4 0;
#X connect 3 0 1 0;
#X connect 4 0 3 0;
#X connect 5 0 3 0;
#X connect 6 0 7 0;
#X connect 7 0 3 0;
#X connect 8 0 9 0;
#X connect 9 0 3 0;
#X connect 10 0 11 0;
#X connect 11 0 3 0;
#X connect 12 0 13 0;
#X connect 13 0 3 0;
#X restore 763 501 pd sendMiscOsc;
#X text 722 525 Send the widget data over OSC;
#X text 974 391 define widgets: \; sliders-- \; user \, label \, type
\, value \, min \, max \; knobs-- \; user \, label \, type \, value
\, min \, max \; knobSz-- \; size \; clearWidgets-- \; float \; nudge--
\; amt \;;
#X msg 992 172 \; clearWidgets 1 \; knobSz 120 \; nudge 2 \; newWidget
1 Depth knob 0.5 0 1 \; newWidget 2 Speed knob 0.03 0 1 \; newWidget
3 FeedBack knob 0.1 0 1 \; newWidget 4 Clipping slider 0 0 1 \; knobSz
180 \; nudge 2 \; newWidget 5 Stereo/Mono knob 0.2 0 1 \; newWidget
6 Wet/Dry knob 0.6 0 1 \; sendtitle Phaser dyna \;;
#X connect 0 0 1 0;
#X connect 1 0 11 0;
#X connect 2 0 3 0;
#X connect 3 0 5 0;
#X connect 5 0 25 0;
#X connect 5 0 28 0;
#X connect 6 0 10 0;
#X connect 7 0 13 0;
#X connect 8 0 6 0;
#X connect 9 0 0 0;
#X connect 10 0 2 0;
#X connect 11 0 24 0;
#X connect 11 0 27 0;
#X connect 13 0 9 0;
#X connect 13 0 8 0;
#X connect 14 0 13 2;
#X connect 15 0 14 0;
#X connect 16 0 13 1;
#X connect 16 0 15 0;
#X connect 17 0 7 0;
#X connect 18 0 3 1;
#X connect 18 0 2 1;
#X connect 18 0 1 1;
#X connect 18 0 0 1;
#X connect 19 0 17 0;
#X connect 20 0 16 0;
#X connect 21 0 18 0;
#X connect 22 0 23 0;
#X connect 23 0 24 1;
#X connect 23 0 25 1;
#X connect 24 0 12 0;
#X connect 25 0 4 0;
#X connect 26 0 30 0;
#X connect 26 0 34 0;
#X connect 29 0 32 0;
#X connect 29 0 33 0;
#X connect 30 0 76 0;
#X connect 31 0 30 1;
#X connect 31 0 32 1;
#X connect 32 0 77 0;
#X connect 33 0 76 0;
#X connect 34 0 77 0;
#X connect 35 0 38 0;
#X connect 36 0 31 0;
#X connect 37 0 36 0;
#X connect 38 0 33 1;
#X connect 38 0 34 1;
#X connect 44 0 21 0;
#X connect 45 0 22 0;
#X connect 46 0 19 0;
#X connect 47 0 20 0;
#X connect 48 0 35 0;
#X connect 48 0 37 0;
#X connect 49 0 58 0;
#X connect 49 0 61 0;
#X connect 55 0 59 0;
#X connect 56 0 59 1;
#X connect 57 0 56 1;
#X connect 57 0 55 1;
#X connect 58 0 57 0;
#X connect 61 0 78 0;
#X connect 61 0 82 0;
#X connect 63 0 12 0;
#X connect 63 0 64 0;
#X connect 63 1 4 0;
#X connect 63 1 65 0;
#X connect 64 0 55 0;
#X connect 65 0 56 0;
#X connect 66 0 67 0;
#X connect 67 0 64 1;
#X connect 67 0 65 1;
#X connect 68 0 66 0;
#X connect 68 0 69 0;
#X connect 68 0 77 1;
#X connect 68 0 76 1;
#X connect 70 0 66 0;
#X connect 70 0 77 1;
#X connect 70 0 76 1;
#X connect 71 0 19 0;
#X connect 71 0 52 0;
#X connect 72 0 21 0;
#X connect 72 0 50 0;
#X connect 73 0 22 0;
#X connect 73 0 51 0;
#X connect 74 0 20 0;
#X connect 74 0 53 0;
#X connect 75 0 37 0;
#X connect 75 0 35 0;
#X connect 75 0 54 0;
#X connect 76 0 55 0;
#X connect 77 0 56 0;
