#N canvas 157 470 1068 525 10;
#X obj 230 190 adc~;
#X obj 229 290 rev3~, f 18;
#X obj 78 337 *~ 0.5;
#X obj 128 337 *~ 0.5;
#X obj 230 384 *~ 0.5;
#X obj 280 384 *~ 0.5;
#X obj 111 204 param.get 5;
#X obj 111 256 - 1;
#X obj 111 281 abs;
#X obj 574 67 loadbang;
#X obj 271 51 param.get 1;
#X obj 292 109 param.get 2;
#X obj 313 163 param.get 3;
#X obj 334 212 param.get 4;
#X obj 292 135 * 100;
#X obj 334 234 * 100;
#X obj 381 121 sendOSC pp 3;
#X obj 180 45 sendOSC pp 1;
#X obj 365 59 sendOSC pp 2;
#X obj 408 177 sendOSC pp 4;
#X obj 53 205 r ChanE;
#X obj 24 266 sendOSC pp 5;
#X obj 180 22 r ChanA;
#X obj 365 36 r ChanB;
#X obj 381 98 r ChanC;
#X obj 408 154 r ChanD;
#X obj 232 457 dac~;
#X obj 231 415 *~ 0;
#X obj 279 414 *~ 0;
#X obj 368 373 line 0;
#X msg 368 341 1 500;
#X obj 574 98 delay 50;
#X obj 271 86 * 120;
#X text 770 140 Client Widget defs;
#X msg 574 133 \; ChanA 0.9 \; ChanB 0.86 \; ChanC 0.2 \; ChanD 0.3
\; ChanE 0.5 \;;
#X obj 313 186 * 1;
#N canvas 920 307 474 329 sendMiscOsc 0;
#X obj 56 112 r sendlabel;
#X obj 141 252 s P2Jos;
#X obj 21 171 r sendtitle;
#X obj 141 222 list trim;
#X obj 21 195 list prepend lab_t;
#X obj 56 135 list prepend labl;
#X obj 189 152 r clearWidgets;
#X obj 189 176 list prepend clrWidgets;
#X obj 174 88 r newWidget;
#X obj 174 112 list prepend newWidget;
#X obj 95 37 r knobSz;
#X obj 95 61 list prepend knobSz;
#X obj 163 11 r nudge;
#X obj 163 35 list prepend nudge;
#X connect 0 0 5 0;
#X connect 2 0 4 0;
#X connect 3 0 1 0;
#X connect 4 0 3 0;
#X connect 5 0 3 0;
#X connect 6 0 7 0;
#X connect 7 0 3 0;
#X connect 8 0 9 0;
#X connect 9 0 3 0;
#X connect 10 0 11 0;
#X connect 11 0 3 0;
#X connect 12 0 13 0;
#X connect 13 0 3 0;
#X restore 569 434 pd sendMiscOsc;
#X text 528 458 Send the widget data over OSC;
#X text 780 324 define widgets: \; sliders-- \; user \, label \, type
\, value \, min \, max \; knobs-- \; user \, label \, type \, value
\, min \, max \; knobSz-- \; size \; clearWidgets-- \; float \; nudge--
\; amt \;;
#X msg 769 158 \; clearWidgets 1 \; knobSz 140 \; nudge 4 \; newWidget
1 Level knob 0.9 0 1 \; newWidget 2 Depth knob 0.86 0 1 \; nudge 4
\; newWidget 3 Crossover knob 1800 200 10000 \; newWidget 4 Damping
knob 0.3 0 1 \; newWidget 5 Dry/Wet slider 0.5 0 1 \; sendtitle Reverb
dyna \;;
#X connect 0 0 1 0;
#X connect 0 0 2 0;
#X connect 0 1 1 1;
#X connect 0 1 3 0;
#X connect 1 0 4 0;
#X connect 1 1 5 0;
#X connect 1 2 4 0;
#X connect 1 3 5 0;
#X connect 2 0 27 0;
#X connect 3 0 28 0;
#X connect 4 0 27 0;
#X connect 5 0 28 0;
#X connect 6 0 7 0;
#X connect 6 0 5 1;
#X connect 6 0 4 1;
#X connect 7 0 8 0;
#X connect 8 0 2 1;
#X connect 8 0 3 1;
#X connect 9 0 30 0;
#X connect 9 0 31 0;
#X connect 10 0 32 0;
#X connect 11 0 14 0;
#X connect 12 0 35 0;
#X connect 13 0 15 0;
#X connect 14 0 1 3;
#X connect 15 0 1 5;
#X connect 20 0 7 0;
#X connect 20 0 5 1;
#X connect 20 0 4 1;
#X connect 20 0 21 0;
#X connect 22 0 17 0;
#X connect 22 0 32 0;
#X connect 23 0 14 0;
#X connect 23 0 18 0;
#X connect 24 0 16 0;
#X connect 24 0 35 0;
#X connect 25 0 19 0;
#X connect 25 0 15 0;
#X connect 27 0 26 0;
#X connect 28 0 26 1;
#X connect 29 0 28 1;
#X connect 29 0 27 1;
#X connect 30 0 29 0;
#X connect 31 0 34 0;
#X connect 31 0 39 0;
#X connect 32 0 1 2;
#X connect 35 0 1 4;
