#N canvas 773 193 1143 739 10;
#X obj 660 95 loadbang;
#X obj 474 169 sendOSC pp 4;
#X obj 469 145 r ChanD;
#X obj 559 325 line 0;
#X obj 660 126 delay 50;
#X text 770 140 Client Widget defs;
#X obj 234 143 adc~;
#X obj 78 337 *~ 0.5;
#X obj 128 337 *~ 0.5;
#X obj 230 384 *~ 0.5;
#X obj 280 384 *~ 0.5;
#X obj 111 204 param.get 5;
#X obj 111 256 - 1;
#X obj 111 281 abs;
#X obj 53 205 r ChanE;
#X obj 24 266 sendOSC pp 5;
#X obj 232 457 dac~;
#X obj 231 415 *~ 0;
#X obj 279 414 *~ 0;
#X obj 475 193 param.get 4;
#X obj 247 50 sendOSC pp 2;
#X obj 247 27 r ChanB;
#X obj 280 73 param.get 2;
#X obj 136 97 param.get 1;
#X obj 82 119 sendOSC pp 1;
#X obj 82 96 r ChanA;
#X obj 366 127 sendOSC pp 3;
#X obj 366 104 r ChanC;
#X obj 375 153 param.get 3;
#X msg 660 161 \; ChanA 200 \; ChanB 0.54 \; ChanC 470 \; ChanD 0.63
\; ChanE 0.4 \;;
#N canvas 513 538 450 417 fadedee 0;
#X obj 79 34 inlet~;
#X obj 77 299 outlet~;
#X obj 79 143 delwrite~ \$0-delaya 600;
#X obj 215 172 *~ 0;
#X obj 77 206 delread~ \$0-delaya 30;
#X obj 139 6 inlet;
#X obj 206 113 line 0;
#X msg 167 67 0 15;
#X msg 234 78 1 100;
#X obj 167 39 t b;
#X obj 234 53 del 20;
#X obj 77 248 *~ 0;
#X obj 344 73 inlet;
#X obj 157 110 f;
#X connect 0 0 2 0;
#X connect 3 0 2 0;
#X connect 4 0 3 0;
#X connect 4 0 11 0;
#X connect 5 0 9 0;
#X connect 5 0 13 1;
#X connect 6 0 11 1;
#X connect 7 0 6 0;
#X connect 8 0 6 0;
#X connect 9 0 7 0;
#X connect 9 0 10 0;
#X connect 10 0 8 0;
#X connect 10 0 13 0;
#X connect 11 0 1 0;
#X connect 12 0 3 1;
#X connect 13 0 4 0;
#X restore 233 270 pd fadedee;
#N canvas 321 558 450 417 fadedee2 0;
#X obj 79 34 inlet~;
#X obj 77 299 outlet~;
#X obj 215 172 *~ 0;
#X obj 139 6 inlet;
#X obj 206 113 line 0;
#X msg 167 67 0 15;
#X msg 234 78 1 100;
#X obj 167 39 t b;
#X obj 234 53 del 20;
#X obj 77 248 *~ 0;
#X obj 344 73 inlet;
#X obj 157 110 f;
#X obj 79 143 delwrite~ \$0-delayb 600;
#X obj 77 206 delread~ \$0-delayb 30;
#X connect 0 0 12 0;
#X connect 2 0 12 0;
#X connect 3 0 7 0;
#X connect 3 0 11 1;
#X connect 4 0 9 1;
#X connect 5 0 4 0;
#X connect 6 0 4 0;
#X connect 7 0 5 0;
#X connect 7 0 8 0;
#X connect 8 0 6 0;
#X connect 8 0 11 0;
#X connect 9 0 1 0;
#X connect 10 0 2 1;
#X connect 11 0 13 0;
#X connect 13 0 2 0;
#X connect 13 0 9 0;
#X restore 322 267 pd fadedee2;
#X msg 559 293 1.15 500;
#N canvas 920 307 474 329 sendMiscOsc 0;
#X obj 56 112 r sendlabel;
#X obj 141 252 s P2Jos;
#X obj 21 171 r sendtitle;
#X obj 141 222 list trim;
#X obj 21 195 list prepend lab_t;
#X obj 56 135 list prepend labl;
#X obj 189 152 r clearWidgets;
#X obj 189 176 list prepend clrWidgets;
#X obj 174 88 r newWidget;
#X obj 174 112 list prepend newWidget;
#X obj 95 37 r knobSz;
#X obj 95 61 list prepend knobSz;
#X obj 163 11 r nudge;
#X obj 163 35 list prepend nudge;
#X connect 0 0 5 0;
#X connect 2 0 4 0;
#X connect 3 0 1 0;
#X connect 4 0 3 0;
#X connect 5 0 3 0;
#X connect 6 0 7 0;
#X connect 7 0 3 0;
#X connect 8 0 9 0;
#X connect 9 0 3 0;
#X connect 10 0 11 0;
#X connect 11 0 3 0;
#X connect 12 0 13 0;
#X connect 13 0 3 0;
#X restore 609 434 pd sendMiscOsc;
#X text 568 458 Send the widget data over OSC;
#X text 820 324 define widgets: \; sliders-- \; user \, label \, type
\, value \, min \, max \; knobs-- \; user \, label \, type \, value
\, min \, max \; knobSz-- \; size \; clearWidgets-- \; float \; nudge--
\; amt \;;
#X msg 767 161 \; clearWidgets 1 \; knobSz 160 \; nudge 3 \; newWidget
1 Delay-A knob 200 0 600 \; newWidget 2 Feedback-A knob 0.54 0 1 \;
newWidget 3 Delay-B knob 470 0 600 \; newWidget 4 Feedback-B knob 0.63
0 1 \; newWidget 5 Dry/Wet slider 0.4 0 1 \; sendtitle Echo dyna \;
;
#X connect 0 0 32 0;
#X connect 0 0 4 0;
#X connect 2 0 1 0;
#X connect 2 0 31 2;
#X connect 3 0 18 1;
#X connect 3 0 17 1;
#X connect 4 0 29 0;
#X connect 4 0 36 0;
#X connect 6 0 7 0;
#X connect 6 0 30 0;
#X connect 6 1 8 0;
#X connect 6 1 31 0;
#X connect 7 0 17 0;
#X connect 8 0 18 0;
#X connect 9 0 17 0;
#X connect 10 0 18 0;
#X connect 11 0 12 0;
#X connect 11 0 10 1;
#X connect 11 0 9 1;
#X connect 12 0 13 0;
#X connect 13 0 7 1;
#X connect 13 0 8 1;
#X connect 14 0 12 0;
#X connect 14 0 10 1;
#X connect 14 0 9 1;
#X connect 14 0 15 0;
#X connect 17 0 16 0;
#X connect 18 0 16 1;
#X connect 19 0 31 2;
#X connect 21 0 20 0;
#X connect 21 0 30 2;
#X connect 22 0 30 2;
#X connect 23 0 30 1;
#X connect 25 0 24 0;
#X connect 25 0 30 1;
#X connect 27 0 26 0;
#X connect 27 0 31 1;
#X connect 28 0 31 1;
#X connect 30 0 9 0;
#X connect 31 0 10 0;
#X connect 32 0 3 0;
