#N canvas 584 197 857 478 10;
#X obj 452 34 loadbang;
#X obj 339 142 line 0;
#X obj 452 65 delay 50;
#X text 562 79 Client Widget defs;
#X obj 91 76 adc~;
#X obj 91 166 *~ 0.5;
#X obj 141 166 *~ 0.5;
#X obj 93 239 dac~;
#X obj 92 197 *~ 0;
#X obj 140 196 *~ 0;
#X obj 174 39 param.get 1;
#X obj 190 87 sendOSC pp 1;
#X obj 190 64 r ChanA;
#N canvas 920 307 474 329 sendMiscOsc 0;
#X obj 56 112 r sendlabel;
#X obj 141 252 s P2Jos;
#X obj 21 171 r sendtitle;
#X obj 141 222 list trim;
#X obj 21 195 list prepend lab_t;
#X obj 56 135 list prepend labl;
#X obj 189 152 r clearWidgets;
#X obj 189 176 list prepend clrWidgets;
#X obj 174 88 r newWidget;
#X obj 174 112 list prepend newWidget;
#X obj 95 37 r knobSz;
#X obj 95 61 list prepend knobSz;
#X obj 163 11 r nudge;
#X obj 163 35 list prepend nudge;
#X connect 0 0 5 0;
#X connect 2 0 4 0;
#X connect 3 0 1 0;
#X connect 4 0 3 0;
#X connect 5 0 3 0;
#X connect 6 0 7 0;
#X connect 7 0 3 0;
#X connect 8 0 9 0;
#X connect 9 0 3 0;
#X connect 10 0 11 0;
#X connect 11 0 3 0;
#X connect 12 0 13 0;
#X connect 13 0 3 0;
#X restore 122 303 pd sendMiscOsc;
#X text 81 327 Send the widget data over OSC;
#X text 381 227 define widgets: \; sliders-- \; user \, label \, type
\, value \, min \, max \; knobs-- \; user \, label \, type \, value
\, min \, max \; knobSz-- \; size \; clearWidgets-- \; float \; nudge--
\; amt \;;
#X msg 452 100 \; ChanA 0.9 \;;
#X msg 339 110 1 500;
#X msg 559 100 \; clearWidgets 1 \; knobSz 160 \; nudge 5 \; newWidget
1 Volume knob 0.9 0 1.5 \; sendtitle No FX dyna \;;
#X connect 0 0 17 0;
#X connect 0 0 2 0;
#X connect 1 0 9 1;
#X connect 1 0 8 1;
#X connect 2 0 16 0;
#X connect 2 0 18 0;
#X connect 4 0 5 0;
#X connect 4 1 6 0;
#X connect 5 0 8 0;
#X connect 6 0 9 0;
#X connect 8 0 7 0;
#X connect 9 0 7 1;
#X connect 10 0 6 1;
#X connect 10 0 5 1;
#X connect 12 0 11 0;
#X connect 12 0 6 1;
#X connect 12 0 5 1;
#X connect 17 0 1 0;
